 <!DOCTYPE svg PUBLIC "-//W3C//DTD SVG 1.1//EN" "http://www.w3.org/Graphics/SVG/1.1/DTD/svg11.dtd">
<svg id="e7dfffd9-b701-48de-8345-6e90d16f0242" data-name="Layer 1" xmlns="http://www.w3.org/2000/svg" width="865.76" height="682.89" viewBox="0 0 865.76 682.89">
<defs>
<style xmlns="http://www.w3.org/1999/xhtml">*, ::after, ::before { box-sizing: border-box; }
img, svg { vertical-align: middle; }
</style>
<style xmlns="http://www.w3.org/1999/xhtml">*, body, html { -webkit-font-smoothing: antialiased; }
img, svg { max-width: 100%; }
</style>
</defs>
<path d="M802.87,547.38H99.6s-74.26-79.68,0-119.23c0,0,59-4.58,52.46-79.93,0,0-23.48-132.69,150.18-110.34,0,0,74.53,20,132.49-31.66,0,0,168.13-184.19,246.13,38.15a60.78,60.78,0,0,0,31.59,34.95C758.8,301,853.59,368.76,802.87,547.38Z" fill="#0071f2" data-primary="true"/>
<path d="M802.87,547.38H99.6s-74.26-79.68,0-119.23c0,0,59-4.58,52.46-79.93,0,0-23.48-132.69,150.18-110.34,0,0,74.53,20,132.49-31.66,0,0,168.13-184.19,246.13,38.15a60.78,60.78,0,0,0,31.59,34.95C758.8,301,853.59,368.76,802.87,547.38Z" fill="#fff" opacity="0.7"/>
<polygon points="441.78 265.55 475.08 265.55 382.81 537.61 349.55 537.61 441.78 265.55" fill="#e6e7e8"/>
<path d="M105.62,485.47l59.91-66.68s11.16-14.51,29.2-13.65l-50.89,82Z" fill="#2f2e41" data-secondary="true"/>
<path d="M105.62,485.47l59.91-66.68s11.16-14.51,29.2-13.65l-50.89,82Z" opacity="0.2"/>
<path d="M93.59,497.78l-2.89,4.11s2.13-.61,6.86,3.05c0,0,3.8,3.35,16.91,0l9.44-2.63,2.17-4.07Z" fill="#f9b499"/>
<path d="M125,505.45l-4.1,6.14s-3.32-2-7.34,2.64a20,20,0,0,1-6.14,4.42s-15,6.73-30,9.47c0,0-6.17-1.16-9,3.33a9.76,9.76,0,0,0-1.34,4.68s-26.86.27-28.48-4.58a12.45,12.45,0,0,1-.43-5.86c.63-3.21,3.09-6.56,10.61-6.71a19.1,19.1,0,0,0,4.26-.59,175.6,175.6,0,0,0,23.24-7.3,32.1,32.1,0,0,0,9.87-6.59,9.08,9.08,0,0,1,4.56-2.6s3.14-.54,6.85,3c0,0,3.41,3.05,16.21.16l.71-.16c5.85-1.63,8.32-2.29,9.44-2.63A2.38,2.38,0,0,0,125,505.45Z" fill="#0071f2" data-primary="true"/>
<path d="M125,505.45l-4.1,6.14s-3.32-2-7.34,2.64a20,20,0,0,1-6.14,4.42s-15,6.73-30,9.47c0,0-6.17-1.16-9,3.33a9.76,9.76,0,0,0-1.34,4.68s-26.86.27-28.48-4.58a12.45,12.45,0,0,1-.43-5.86c.63-3.21,3.09-6.56,10.61-6.71a19.1,19.1,0,0,0,4.26-.59,175.6,175.6,0,0,0,23.24-7.3,32.1,32.1,0,0,0,9.87-6.59,9.08,9.08,0,0,1,4.56-2.6s3.14-.54,6.85,3c0,0,3.41,3.05,16.21.16l.71-.16c5.85-1.63,8.32-2.29,9.44-2.63A2.38,2.38,0,0,0,125,505.45Z" opacity="0.2"/>
<path d="M146,487.17l-46-2s-4.83-.71-6.19,3.61l-3.63,6.81s-1.82,3.4,3.63,3.63L142,500.61s3.86.91,5.45-2.27l4.31-5.4S154.16,486.24,146,487.17Z" fill="#0071f2" data-primary="true"/>
<path d="M146,487.17l-46-2s-4.83-.71-6.19,3.61l-3.63,6.81s-1.82,3.4,3.63,3.63L142,500.61s3.86.91,5.45-2.27l4.31-5.4S154.16,486.24,146,487.17Z" fill="#fff" opacity="0.2"/>
<path d="M125.81,504.25l-4.89,7.34a18.4,18.4,0,0,1,4.89,2.26s5.65,3,16.76,0c0,0,9.39-3.46,14.07-4.13l1.27-2.92-5.95-8Z" fill="#f9b499"/>
<path d="M154.63,543.78l-55,.88s-33.3,2.72-32.4-5.92a13.25,13.25,0,0,1,0-4c.52-3.19,2.33-7.23,9.07-6.76a9.63,9.63,0,0,0,2.4-.14,148.36,148.36,0,0,0,28.74-9.22,17.7,17.7,0,0,0,6.14-4.42c1.73-1.91,4.44-4,7.34-2.64,0,0,1.6.22,4.89,2.26,0,0,6.87,3.2,16.75,0,0,0,10.48-3.82,14.08-4.13,0,0,1.63,1.49,1.27,8a60.08,60.08,0,0,0-.43,7,32.3,32.3,0,0,0,.48,5.76S165.4,542,154.63,543.78Z" fill="#0071f2" data-primary="true"/>
<path d="M154.63,543.78l-55,.88s-33.3,2.72-32.4-5.92a13.25,13.25,0,0,1,0-4,89.06,89.06,0,0,0,26.61,4.7S121,542,135.58,533.34c0,0,11.95-9.71,21.9-8.63a32.3,32.3,0,0,0,.48,5.76S165.4,542,154.63,543.78Z" opacity="0.2"/>
<path d="M265.55,390.48h0a9.56,9.56,0,0,0,2.79,5.21,27.28,27.28,0,0,0,10.48,6.11s26.48,5.62,32.65,9.87c0,0,3.46,5.72,2.32,12,0,0-32.18-12.28-42.07-13.77a15.46,15.46,0,0,1-1.77-.37c-3.69-1-15.19-4.46-17.75-11Z" fill="#f7a48b"/>
<path d="M343.4,295.49s-7.61,4.33-8.2,22.83c0,0-5.68,3.58-.6,6,0,0-3.73,20.75,16.12,19.25l13.43-2.38s5.52-24.18,5.52-24.63S365.19,304,365.19,304Z" fill="#f9b499"/>
<path d="M398.19,343.62c-1.62,5.3-.76,7.09-.76,7.09,2.09,16.42-.75,15.82-.75,15.82-.77,1.28-2.83,1.38-4.92,1.08a10.31,10.31,0,0,1-2.79-.82,11.19,11.19,0,0,1-4.6-3.9c-4.95-7.29-13.51-7.4-13.51-7.4-10-.75-18.8,8.2-18.8,8.2-4,3.27-5.67.75-5.67.75-5.53-2.24-2.48-10.45-2.48-10.45-4.74,4.65-8,10.91-10.23,17-.71.39-1.43.81-2.16,1.24,6.21-18.69,21.43-31.49,21.43-31.49,2.24-2.83,1.65-4.93,1.65-4.93-.7-1.83.69-4,2-5.53a9.34,9.34,0,0,0,2-8.45,30.08,30.08,0,0,0-3-6.8,11.86,11.86,0,0,0-2-2.51c-4.47-4.27-9-11.62-9-11.62-3.88-5.84.84-9.8,2.73-11.06a7,7,0,0,1,1.14-.63h0a34.42,34.42,0,0,1,7.91-2.53c17.48-3.21,25.53,12,25.53,12l5.22,10.3c4.18,7.47,2.69,10.63,2.69,10.63-.15,8.1,5.37,11.46,5.37,11.46A13.56,13.56,0,0,1,398.19,343.62Z" fill="#2f2e41" data-secondary="true"/>
<circle cx="362" cy="316.56" r="8.83" fill="#e6e7e8"/>
<circle cx="362" cy="316.56" r="5.73" opacity="0.2"/>
<path d="M365.89,308.63a8.63,8.63,0,0,0-7.78,0c-1.87-7-8-16.93-9.65-19.45h0a34.42,34.42,0,0,1,7.91-2.53C359.69,290.83,365.89,308.63,365.89,308.63Z" fill="#e6e7e8"/>
<path d="M367.77,483,327.05,468.7,313,427.4a19.14,19.14,0,0,0-1.48-15.73c-5.33-6.48-3.72-15.15-2.73-18.73a12.17,12.17,0,0,1,1.3-3c3.94-6.42,13.27-12.89,21.48-17.7.74-.43,1.45-.85,2.17-1.25,7-4,12.7-6.51,12.7-6.51a4.82,4.82,0,0,0,5.67-.75s8.8-8.95,18.81-8.2c0,0,8.55.11,13.51,7.4a11.13,11.13,0,0,0,4.6,3.9C391.75,410.65,367.77,483,367.77,483Z" fill="#0071f2" data-primary="true"/>
<path d="M323.46,413.31l22.93-48.87s1.68,2.53,5.67-.75c0,0,13.22-14.86,27.55-5.4l-11.88,59.07Z" fill="#0071f2" data-primary="true"/>
<path d="M323.46,413.31l22.93-48.87s1.68,2.53,5.67-.75c0,0,13.22-14.86,27.55-5.4l-11.88,59.07Z" opacity="0.2"/>
<path d="M324.85,413.44l-7.32,11.75s-32.67-13.77-46.43-15.39c0,0-16.2-4-18.9-11.33L211,368.68s1.08,16.92,7.74,24.12c0,0-3.6,10.62,17.81,22.31,0,0,17.82,14.94,36.18,25.2,0,0,35.09,23.57,47.68,27.53,0,0,12.78,5.94,22.68-10.26l23.57-40.22Z" fill="#f9b499"/>
<polygon points="330.49 413.97 362.67 424.17 366.65 417.36 330.49 413.97" fill="#f7a48b"/>
<path d="M322,434.73a40.13,40.13,0,0,1-2.53-4.64,37.92,37.92,0,0,1-2-4.9,39.32,39.32,0,0,1,2.53,4.64A37.92,37.92,0,0,1,322,434.73Z" fill="#f7a48b"/>
<polygon points="203.74 360.61 243.36 404.03 270.74 387.31 268.58 385.9 221.97 355.44 204.46 357.34 203.74 360.61" fill="#0071f2" data-primary="true"/>
<polygon points="205.37 354.33 244.46 396.4 255.73 389.41 255.73 394.43 243.56 401.8 204.1 358.51 205.37 354.33" fill="#d1d3d4"/>
<polygon points="222.69 352.85 205.37 354.33 244.46 396.4 255.73 389.41 222.69 352.85" fill="#e6e7e8"/>
<polygon points="256.36 389.17 268.58 381.82 268.58 385.9 256.36 394.15 256.36 389.17" fill="#d1d3d4"/>
<polygon points="223.71 352.85 235.28 346.55 268.58 381.82 256.36 389.17 223.71 352.85" fill="#e6e7e8"/>
<polygon points="256.36 394.15 255.73 394.43 255.73 389.41 222.69 352.85 223.71 352.85 256.36 389.17 256.36 394.15" fill="#2f2e41" data-secondary="true"/>
<polygon points="240.24 363.83 228.5 350.57 232.46 348.22 244 361.57 240.57 360.49 240.24 363.83" fill="#0071f2" data-primary="true"/>
<path d="M217.84,378.71s-.78-10.58,3.22-9.16c0,0,6.19,4.26,5.81,19.61" fill="#f9b499"/>
<path d="M241.32,409.55c-.44-.9-.88-1.8-1.34-2.68s-.9-1.78-1.38-2.65c-.95-1.76-1.93-3.49-3-5.16a42.44,42.44,0,0,0-3.45-4.84,11.44,11.44,0,0,0-1-1.11c-.35-.35-.67-.74-1.05-1.05s-.74-.67-1.12-1-.83-.55-1.24-.84a14.74,14.74,0,0,1,4.75,3.66,28.73,28.73,0,0,1,1.93,2.33c.58.82,1.17,1.64,1.69,2.49a54.94,54.94,0,0,1,5.18,10.83Z" fill="#f7a48b"/>
<path d="M201.54,468.9,271,522.06l12.49,9.53s8.77,7,18.75,9.9l-24.88-53.71-72-38.59Z" fill="#2f2e41" data-secondary="true"/>
<path d="M201.54,468.9,271,522.06l12.49,9.53s8.77,7,18.75,9.9l-24.88-53.71-72-38.59Z" opacity="0.2"/>
<rect x="246.05" y="401.12" width="298.9" height="1.89" transform="translate(-112.25 647.57) rotate(-71.28)" fill="#2f2e41" data-secondary="true"/>
<rect x="279.33" y="401.12" width="298.91" height="1.89" transform="translate(-89.65 679.09) rotate(-71.28)" fill="#2f2e41" data-secondary="true"/>
<rect x="472.43" y="272.68" width="42.9" height="270.93" fill="#0071f2" data-primary="true"/>
<rect x="472.43" y="281.22" width="42.9" height="11.16" opacity="0.2"/>
<rect x="472.43" y="525.7" width="42.9" height="11.16" opacity="0.2"/>
<rect x="516.57" y="260.04" width="71.74" height="284.62" fill="#e6e7e8"/>
<rect x="516.57" y="299.22" width="13.41" height="128.93" fill="#d1d3d4"/>
<rect x="534.78" y="260.04" width="0.63" height="55.19" fill="#d1d3d4"/>
<rect x="540.9" y="260.04" width="0.63" height="55.19" fill="#d1d3d4"/>
<rect x="567.89" y="260.04" width="0.63" height="100.72" fill="#d1d3d4"/>
<rect x="540.9" y="482.98" width="0.63" height="61.68" fill="#d1d3d4"/>
<rect x="572.37" y="482.98" width="0.63" height="61.68" fill="#d1d3d4"/>
<rect x="546.75" y="496.35" width="0.63" height="48.31" fill="#d1d3d4"/>
<rect x="591.25" y="254.37" width="12.39" height="289.23" fill="#2f2e41" data-secondary="true"/>
<rect x="603.63" y="245.61" width="44.34" height="297.99" fill="#0071f2" data-primary="true"/>
<rect x="603.63" y="256.03" width="44.34" height="1.98" opacity="0.2"/>
<rect x="603.63" y="262.33" width="44.34" height="1.98" opacity="0.2"/>
<rect x="603.63" y="367.6" width="44.34" height="1.98" opacity="0.2"/>
<rect x="603.63" y="524.71" width="44.34" height="1.98" opacity="0.2"/>
<rect x="603.63" y="530.65" width="44.34" height="1.98" opacity="0.2"/>
<rect x="647.97" y="270.44" width="58.56" height="273.16" fill="#2f2e41" data-secondary="true"/>
<rect x="647.97" y="289.22" width="58.56" height="16.47" opacity="0.2"/>
<rect x="647.97" y="509.23" width="58.56" height="16.47" opacity="0.2"/>
<rect x="647.97" y="499.52" width="58.56" height="6.26" opacity="0.2"/>
<g opacity="0.2">
<rect x="663.76" y="325.22" width="1.26" height="159.74"/>
</g>
<g opacity="0.2">
<rect x="675.73" y="325.22" width="1.26" height="159.74"/>
</g>
<g opacity="0.2">
<rect x="689.05" y="325.22" width="1.26" height="159.74"/>
</g>
<rect x="709.22" y="260.04" width="35.15" height="283.56" fill="#e6e7e8"/>
<rect x="722.83" y="260.04" width="0.63" height="100.72" fill="#d1d3d4"/>
<rect x="732.1" y="260.04" width="0.63" height="53.37" fill="#d1d3d4"/>
<rect x="722.55" y="478.71" width="0.63" height="64.89" fill="#d1d3d4"/>
<rect x="729.36" y="478.71" width="0.63" height="64.89" fill="#d1d3d4"/>
<path d="M747.07,430.46h11.12a6.84,6.84,0,0,1,6.84,6.84v0a6.84,6.84,0,0,1-6.84,6.84H747.07a0,0,0,0,1,0,0V430.46A0,0,0,0,1,747.07,430.46Z" fill="#e6e7e8"/>
<path d="M363.54,325.39s-.52,17.37-17.15,39.05" fill="none" stroke="#fff" stroke-miterlimit="10"/>
<path d="M333.69,371a85.12,85.12,0,0,0-4.61,20.35,47.43,47.43,0,0,1,2.44-19.1C332.26,371.77,333,371.35,333.69,371Z" fill="#2f2e41" data-secondary="true"/>
<path d="M184.85,495.57,211,462.9s35.9,26.85,65.05,55.85a90.34,90.34,0,0,1,6.27,7c5.91,7.29,23.94,25.84,48.18,16.21,0,0,27.94-11.19,31.39-61.06L327.05,468.7s-3.9,2-17.49-5.8c0,0-26-16-36.84-22.59,0,0-28-17.13-36.18-25.2,0,0-9.4-5.67-14.21-11.08,0,0-23.26-10.68-33.27,4.33l-55.33,83.53,44.53,2.37S183.53,493.2,184.85,495.57Z" fill="#2f2e41" data-secondary="true"/>
<path d="M179.27,494.11l-45.54-2.22s-4.83-.71-6.19,3.61l-3.63,6.81s-1.82,3.4,3.63,3.63l48.13,1.36s3.85.91,5.44-2.27l3.48-4.36a4.4,4.4,0,0,0,.91-3.83C185.09,495.23,183.63,493.61,179.27,494.11Z" fill="#0071f2" data-primary="true"/>
<path d="M179.27,494.11l-45.54-2.22s-4.83-.71-6.19,3.61l-3.63,6.81s-1.82,3.4,3.63,3.63l48.13,1.36s3.85.91,5.44-2.27l3.48-4.36a4.4,4.4,0,0,0,.91-3.83C185.09,495.23,183.63,493.61,179.27,494.11Z" fill="#fff" opacity="0.3"/>
<rect x="513.63" y="257.11" width="5.87" height="290.27" rx="2.93" fill="#0071f2" data-primary="true"/>
<rect x="513.63" y="257.11" width="5.87" height="290.27" rx="2.93" fill="#fff" opacity="0.3"/>
<rect x="585.38" y="257.11" width="5.87" height="290.27" rx="2.93" fill="#0071f2" data-primary="true"/>
<rect x="585.38" y="257.11" width="5.87" height="290.27" rx="2.93" fill="#fff" opacity="0.3"/>
<path d="M765,437.29s60-9.72,62.68-86.63a148.84,148.84,0,0,0-12.48-64.44c-18.48-42.6-65.52-117.31-160.81-87.78,0,0-54.46,9.66-99.29,45a122.41,122.41,0,0,0-14.27,13.33c-9.92,10.76-30.41,33.15-36.17,40.64,0,0-42.17,51.83-94.1,29.29,0,0-20.41-10.73-20-28.43a21.92,21.92,0,0,1,29.61-20.26c9.71,3.63,21.36,14.26,32.53,40.2,0,0,21.56,42.6,13.39,89.89,0,0-5.65,44.5-45,66.78-17.59,10-38.58,12.47-57.72,5.94-9.07-3.09-18.39-8.36-25-17.29" fill="none" stroke="#fff" stroke-miterlimit="10"/>
<rect x="706.53" y="256.03" width="5.39" height="291.35" rx="2.69" fill="#0071f2" data-primary="true"/>
<rect x="741.68" y="256.68" width="5.39" height="291.35" rx="2.69" fill="#0071f2" data-primary="true"/>
<g opacity="0.3">
<rect x="706.53" y="256.03" width="5.39" height="291.35" rx="2.69" fill="#fff"/>
<rect x="741.68" y="256.68" width="5.39" height="291.35" rx="2.69" fill="#fff"/>
</g>
<polygon points="417.24 509.52 410.15 547.54 414.82 547.54 421.74 509.52 417.24 509.52" fill="#2f2e41" data-secondary="true"/>
<polygon points="465.76 510.29 472.86 548.3 468.19 548.3 461.27 510.29 465.76 510.29" fill="#2f2e41" data-secondary="true"/>
<path d="M440.25,492.53s-1.73-16.27-4.15-23.19a63.6,63.6,0,0,1-4-18.33l-2.25-43.77L442,433s6.75,14.7,5.71,37.54c0,0-1,16.95-4.5,22Z" fill="#0071f2" data-primary="true"/>
<path d="M493.91,450.85c-5.18,5-29.49,27.88-49.65,39.58a53.11,53.11,0,0,0,2.56-11.37l9.86-8.9s10.63-12.07,25.7-15.65a14.48,14.48,0,0,0,1.84-.56l9.39-3.58A.29.29,0,0,1,493.91,450.85Z" fill="#0071f2" data-primary="true"/>
<path d="M493.91,450.85c-5.18,5-29.49,27.88-49.65,39.58a53.11,53.11,0,0,0,2.56-11.37l9.86-8.9s10.63-12.07,25.7-15.65a14.48,14.48,0,0,0,1.84-.56l9.39-3.58A.29.29,0,0,1,493.91,450.85Z" fill="#231f20" opacity="0.2"/>
<path d="M440.25,492.53h-3.81s-7.89-12.71-14.8-19.61a44.39,44.39,0,0,1-4.18-4.71c-.52-.67-1.11-1.44-1.74-2.29a164.09,164.09,0,0,1-10.42-15.56l-16.95-29.11L410.15,438a91.35,91.35,0,0,1,25.26,37A70.68,70.68,0,0,1,440.25,492.53Z" fill="#0071f2" data-primary="true"/>
<path d="M436.44,492.53h-1.38l-6.52-4.62a23.8,23.8,0,0,0-3.09-1.88c-12-6-32.93-25.88-38.49-31.25a.49.49,0,0,1,.48-.81c12.28,3.78,28.28,11.95,28.28,11.95.63.85,1.22,1.62,1.74,2.29a44.39,44.39,0,0,0,4.18,4.71C428.55,479.82,436.44,492.53,436.44,492.53Z" fill="#0071f2" data-primary="true"/>
<path d="M436.44,492.53h-1.38l-6.52-4.62a23.8,23.8,0,0,0-3.09-1.88c-12-6-32.93-25.88-38.49-31.25a.49.49,0,0,1,.48-.81c12.28,3.78,28.28,11.95,28.28,11.95.63.85,1.22,1.62,1.74,2.29a44.39,44.39,0,0,0,4.18,4.71C428.55,479.82,436.44,492.53,436.44,492.53Z" fill="#231f20" opacity="0.2"/>
<polygon points="460.83 531.1 422.6 531.1 415.73 492.52 465.33 492.52 460.83 531.1" fill="#2f2e41" data-secondary="true"/>
<polygon points="460.83 531.1 422.6 531.1 415.73 492.52 465.33 492.52 460.83 531.1" opacity="0.2"/>
<rect x="413.44" y="507.23" width="53.63" height="4.58" fill="#2f2e41" data-secondary="true"/>
<g id="bb0a026e-60fa-482c-ab48-ad5496627e07" data-name="freepik--Icons--inject-569">
<path d="M546.71,213.73a22,22,0,0,1-5.07-43.43h0a22,22,0,1,1,5.07,43.43Zm-4.83-42.45a21,21,0,1,0,25.31,15.56,21,21,0,0,0-25.31-15.56Z" fill="#2f2e41" data-secondary="true"/>
<path d="M538.14,206.37a.43.43,0,0,1-.25-.07.48.48,0,0,1-.25-.43V177.59a.48.48,0,0,1,.25-.43.5.5,0,0,1,.5,0l24.49,14.14a.49.49,0,0,1,0,.86L538.39,206.3A.47.47,0,0,1,538.14,206.37Zm.5-27.91V205l23-13.27Z" fill="#2f2e41" data-secondary="true"/>
<path d="M770.59,405.52a15.06,15.06,0,1,1,5.75-1.15A15,15,0,0,1,770.59,405.52Zm0-29.09a14.22,14.22,0,0,0-5.38,1.07,14,14,0,0,0-7.59,7.6h0A14,14,0,1,0,776,377.5,14.13,14.13,0,0,0,770.59,376.43Zm-13.44,8.48h0Z" fill="#2f2e41" data-secondary="true"/>
<path d="M764.77,400.53a.51.51,0,0,1-.25-.06.5.5,0,0,1-.25-.44V380.91a.5.5,0,0,1,.75-.43L781.58,390a.5.5,0,0,1,0,.87L765,400.47A.57.57,0,0,1,764.77,400.53Zm.5-18.75v17.39l15.06-8.7Z" fill="#2f2e41" data-secondary="true"/>
<path d="M147.46,381.38H135.18a.5.5,0,0,1-.5-.5V340.66a.5.5,0,0,1,.5-.5h12.28a.5.5,0,0,1,.5.5v40.22A.51.51,0,0,1,147.46,381.38Zm-11.78-1H147V341.16H135.68Z" fill="#2f2e41" data-secondary="true"/>
<path d="M168.94,381.38H156.66a.5.5,0,0,1-.5-.5V340.66a.5.5,0,0,1,.5-.5h12.28a.5.5,0,0,1,.5.5v40.22A.51.51,0,0,1,168.94,381.38Zm-11.78-1h11.28V341.16H157.16Z" fill="#2f2e41" data-secondary="true"/>
<path d="M194.73,277.82h-28a.5.5,0,0,1-.5-.5v-28a.51.51,0,0,1,.5-.5h28a.5.5,0,0,1,.5.5v28A.5.5,0,0,1,194.73,277.82Zm-27.51-1h27v-27h-27Z" fill="#2f2e41" data-secondary="true"/>
<path d="M492.08,223.37h-17a.5.5,0,0,1-.5-.5v-17a.5.5,0,0,1,.5-.5h17a.5.5,0,0,1,.5.5v17A.5.5,0,0,1,492.08,223.37Zm-16.5-1h16v-16h-16Z" fill="#2f2e41" data-secondary="true"/>
<path d="M793.63,347.1h-17a.5.5,0,0,1-.5-.5v-17a.5.5,0,0,1,.5-.5h17a.5.5,0,0,1,.5.5v17A.5.5,0,0,1,793.63,347.1Zm-16.5-1h16v-16h-16Z" fill="#2f2e41" data-secondary="true"/>
</g>
<circle cx="275.41" cy="286.2" r="34.09" fill="#fff" opacity="0.7"/>
<polygon points="268.63 270.46 268.63 302.37 285.41 293.02 285.41 279.81 268.63 270.46" fill="#2f2e41" data-secondary="true"/>
<rect x="286.41" y="280.04" width="8.39" height="12.64" fill="#2f2e41" data-secondary="true"/>
<path d="M255.05,299a1,1,0,0,0,.73-1.68,17.85,17.85,0,0,1,.12-24.53,1,1,0,0,0,0-1.41,1,1,0,0,0-1.42,0,19.86,19.86,0,0,0-.13,27.28A1,1,0,0,0,255.05,299Z" fill="#2f2e41" data-secondary="true"/>
<path d="M258.91,296.29a1,1,0,0,0,.71-.3,1,1,0,0,0,0-1.41,13.23,13.23,0,0,1-.27-18.68c.19-.2.38-.38.58-.57a1,1,0,0,0,.07-1.41,1,1,0,0,0-1.42-.07c-.23.21-.45.43-.67.65a15.23,15.23,0,0,0,.32,21.51A1,1,0,0,0,258.91,296.29Z" fill="#2f2e41" data-secondary="true"/>
<path d="M262.78,292.72a1,1,0,0,0,.73-.32,1,1,0,0,0-.06-1.41,8,8,0,0,1-.47-11.31c.25-.26.51-.51.79-.75a1,1,0,0,0,.14-1.4,1,1,0,0,0-1.41-.14,11,11,0,0,0-1,.94,10,10,0,0,0,.59,14.13A1,1,0,0,0,262.78,292.72Z" fill="#2f2e41" data-secondary="true"/>
</svg>